<svg id="Layer_1" data-name="Layer 1" xmlns="http://www.w3.org/2000/svg" width="663" height="663" viewBox="0 0 663 663"><defs><style>.cls-1{fill:#0f9;}.cls-1,.cls-2,.cls-3,.cls-4,.cls-5,.cls-6{fill-rule:evenodd;}.cls-2{fill:#93f;}.cls-3{fill:#fff35c;}.cls-4{opacity:0.4;}.cls-5{fill:#0cf;}.cls-6{fill:#f66;}</style></defs><title>giphy_logo_icon</title><rect width="663" height="663" rx="150" ry="150"/><polygon class="cls-1" points="176.8 148.07 176.8 197.11 176.8 247.63 176.8 298.14 176.8 348.65 176.8 399.17 176.8 449.68 176.8 501.67 221 501.67 221 449.68 221 399.17 221 348.65 221 298.14 221 247.63 221 197.11 221 148.07 176.8 148.07"/><polygon class="cls-2" points="442 236.47 442 288.04 442 341.08 442 394.12 442 447.16 442 501.67 486.2 501.67 486.2 447.16 486.2 394.12 486.2 341.08 486.2 288.04 486.2 236.47 442 236.47"/><polygon class="cls-3" points="325.98 132.6 276.25 132.6 226.53 132.6 176.8 132.6 176.8 176.8 226.53 176.8 276.25 176.8 325.98 176.8 369.07 176.8 369.07 132.6 325.98 132.6"/><polygon class="cls-4" points="309.4 176.8 375.7 176.8 353.6 132.6 309.4 176.8"/><polygon class="cls-4" points="486.2 265.2 442 243.1 442 309.4 486.2 265.2"/><polygon class="cls-5" points="442 486.2 397.8 486.2 353.6 486.2 309.4 486.2 265.2 486.2 221 486.2 176.8 486.2 176.8 530.4 221 530.4 265.2 530.4 309.4 530.4 353.6 530.4 397.8 530.4 442 530.4 486.2 530.4 486.2 486.2 442 486.2"/><polygon class="cls-6" points="442 221 442 176.8 397.8 176.8 397.8 132.6 353.6 132.6 353.6 168.7 353.6 212.9 353.6 265.2 397.8 265.2 442 265.2 486.2 265.2 486.2 221 442 221"/></svg>